<?xml version="1.0" encoding="UTF-8"?>
<svg width="53px" height="24px" viewBox="0 0 53 24" version="1.1" xmlns="http://www.w3.org/2000/svg" xmlns:xlink="http://www.w3.org/1999/xlink">
    <!-- Generator: Sketch 45 (43475) - http://www.bohemiancoding.com/sketch -->
    <title>LUM TEXT</title>
    <desc>Created with Sketch.</desc>
    <defs></defs>
    <g id="Page-1" stroke="none" stroke-width="1" fill="none" fill-rule="evenodd">
        <g id="LUM-TEXT" transform="translate(0.000000, 0.401959)" fill-rule="nonzero" fill="#FFFFFF">
            <path d="M2.49531318,22.6503246 C1.79753212,22.1631347 1.25219526,21.4880757 0.922575761,20.7034718 C0.539802268,19.8189009 0.349148607,18.8631566 0.363218803,17.8994226 L0.363218803,1.83425496 C0.34660852,1.4392537 0.496251334,1.05536115 0.775806242,0.775806242 C1.05536115,0.496251334 1.4392537,0.34660852 1.83425496,0.363218803 C2.23260499,0.347226762 2.62002493,0.495628299 2.90575043,0.773656051 C3.17701696,1.05852391 3.32118029,1.44121201 3.30529111,1.83425496 L3.30529111,17.8994226 C3.28034226,18.5233581 3.4220094,19.1426817 3.71572836,19.6937235 C3.9076745,20.1101758 4.31803283,20.3828111 4.77632727,20.398368 L5.50276487,20.398368 C5.86635717,20.3864299 6.21642043,20.5368374 6.45803033,20.8088053 C6.70868403,21.1037905 6.83844409,21.4826899 6.82124913,21.8694042 C6.82501478,22.2945062 6.61483531,22.6930283 6.26189217,22.9300031 C5.83546158,23.2219005 5.32514734,23.3660643 4.80901696,23.3404403 L4.75090195,23.3404403 C3.94635007,23.3451564 3.15949088,23.1044104 2.49531318,22.6503246 Z" id="Shape"></path>
            <path d="M24.1358895,7.62759487 C24.4167494,7.9189025 24.5652083,8.31304102 24.5463267,8.71725128 L24.5463267,21.8403467 C24.5639167,22.2443517 24.4156435,22.6379976 24.1358895,22.9300031 C23.7035029,23.3766009 23.0413077,23.5119699 22.468343,23.2708908 C21.8953782,23.0298116 21.5291643,22.4617319 21.5461394,21.8403467 L21.5461394,21.5170819 C20.908113,22.1500046 20.14645,22.6445909 19.3087116,22.9699571 C18.4287362,23.3168126 17.4904639,23.491891 16.5446165,23.4857278 C15.2787496,23.5032296 14.0291028,23.1995655 12.9124285,22.6031061 C11.8282195,22.0159266 10.9431783,21.1195062 10.3698968,20.0278848 C9.72635709,18.7691643 9.40795432,17.3694408 9.44368889,15.956202 L9.44368889,8.71725128 C9.44368889,7.88877243 10.1153037,7.21715762 10.9437825,7.21715762 C11.7722614,7.21715762 12.4438762,7.88877243 12.4438762,8.71725128 L12.4438762,15.956202 C12.4438762,17.5446789 12.8700529,18.7457224 13.7224064,19.5593326 C14.6491097,20.4006479 15.8719316,20.8396097 17.1221344,20.7797477 C17.9015081,20.7896408 18.6724919,20.6180347 19.374091,20.2785058 C20.0138579,19.9754923 20.5616319,19.5079415 20.9613571,18.9236997 C21.3430006,18.3589194 21.5432117,17.6911266 21.5352429,17.0095366 L21.5352429,8.71725128 C21.5179875,8.3105366 21.6721538,7.91523849 21.9602089,7.62759487 C22.578736,7.0676297 23.5209946,7.0676297 24.1395217,7.62759487 L24.1358895,7.62759487 Z M12.6182212,4.26055656 C12.2809718,3.93326814 12.0942651,3.48096458 12.1024505,3.01108388 C12.1012055,2.54389021 12.2931229,2.09695911 12.63275,1.77613995 C12.9627711,1.43240241 13.4202637,1.24046587 13.8967514,1.2458405 C14.3639451,1.24459542 14.8108762,1.4365129 15.1316954,1.77613995 C15.4713224,2.09695911 15.6632399,2.54389021 15.6619948,3.01108388 C15.6690774,3.48367073 15.4765351,3.93733211 15.1316954,4.26055656 C14.8066858,4.59233829 14.3611931,4.77839699 13.8967514,4.77632727 C13.4176555,4.78823014 12.9549477,4.6015696 12.6182212,4.26055656 Z M19.1561597,4.26055656 C18.8267718,3.92912749 18.6459035,3.4782673 18.6549177,3.01108388 C18.652848,2.54664221 18.8389067,2.10114954 19.1706884,1.77613995 C19.4958766,1.43875639 19.9443085,1.24815667 20.4128968,1.24815667 C20.881485,1.24815667 21.329917,1.43875639 21.6551051,1.77613995 C21.9947321,2.09695911 22.1866496,2.54389021 22.1854045,3.01108388 C22.1924871,3.48367073 21.9999448,3.93733211 21.6551051,4.26055656 C21.3300955,4.59233829 20.8846028,4.77839699 20.4201611,4.77632727 C19.9475249,4.78787473 19.4916853,4.60079607 19.1634241,4.26055656 L19.1561597,4.26055656 Z" id="Shape"></path>
            <path d="M50.8942187,8.77899848 C51.9427104,9.89771239 52.4669562,11.4571318 52.4669562,13.4572567 L52.4669562,21.8694042 C52.4845462,22.2734092 52.3362729,22.6670551 52.0565189,22.9590606 C51.6241323,23.4056584 50.9619372,23.5410274 50.3889724,23.2999483 C49.8160076,23.0588691 49.4497937,22.4907894 49.4667688,21.8694042 L49.4667688,13.4390957 C49.4667688,12.2428951 49.1677187,11.3360589 48.5696184,10.7185869 C47.9360609,10.0869046 47.0660668,9.75077049 46.1723743,9.79237894 C45.2187664,9.76164188 44.2993224,10.1490555 43.655268,10.8529778 C42.9865153,11.5919019 42.6332494,12.5630573 42.670945,13.5589579 L42.670945,21.8694042 C42.6881095,22.2733411 42.539897,22.6668255 42.2605078,22.9590606 C41.8281212,23.4056584 41.165926,23.5410274 40.5929612,23.2999483 C40.0199965,23.0588691 39.6537826,22.4907894 39.6707577,21.8694042 L39.6707577,13.4390957 C39.6707577,12.2428951 39.3717076,11.3360589 38.7736073,10.7185869 C38.1366998,10.0912606 37.2654965,9.76044061 36.372731,9.80690769 C35.4116115,9.77551525 34.4841016,10.1624194 33.8301994,10.8675066 C33.1611093,11.6062274 32.8077916,12.5775251 32.8458764,13.5734867 L32.8458764,21.8694042 C32.8634664,22.2734092 32.7151931,22.6670551 32.4354391,22.9590606 C32.0030525,23.4056584 31.3408574,23.5410274 30.7678926,23.2999483 C30.1949278,23.0588691 29.8287139,22.4907894 29.8456891,21.8694042 L29.8456891,8.79352723 C29.8284337,8.38681255 29.9826,7.99151444 30.2706551,7.70387082 C30.5626606,7.42411685 30.9563064,7.27584357 31.3603115,7.29343357 C31.7528329,7.27657232 32.1354497,7.41939849 32.4209104,7.68934207 C32.6890031,7.96459643 32.8400177,8.33301995 32.8422442,8.71725128 C33.3606907,8.20125243 33.9785464,7.79593909 34.6583382,7.52589361 C35.3889623,7.23755742 36.1684573,7.09325217 36.9538811,7.10092761 C37.886159,7.08555496 38.8087153,7.29222748 39.6453324,7.70387082 C40.4343999,8.10090532 41.1084561,8.69367458 41.6030817,9.42552795 C42.1985257,8.69463626 42.9541363,8.11052939 43.8114521,7.71839957 C44.7345545,7.29796979 45.7392817,7.08710111 46.7535244,7.10092761 C48.3110936,7.03740024 49.8203266,7.64903678 50.8942187,8.77899848 Z" id="Shape"></path>
        </g>
    </g>
</svg>